<svg xmlns="http://www.w3.org/2000/svg" width="568.588" height="179.657" viewBox="0 0 568.588 179.657">
  <g>
    <g>
      <g>
        <g>
          <path d="M222.271,65.608H220.79a3.481,3.481,0,0,0,0,6.962h1.481a3.481,3.481,0,0,0,0-6.962Z" fill="#3c02ea"/>
          <path d="M218.007,77.1h7.047a.46.46,0,0,1,.46.46v29.8a.461.461,0,0,1-.461.461h-7.047a.46.46,0,0,1-.46-.46v-29.8A.46.46,0,0,1,218.007,77.1Z" fill="#3c02ea"/>
          <path d="M250.443,76.51a10.008,10.008,0,0,0-2.929.4,9.674,9.674,0,0,0-2.362,1.076A11.271,11.271,0,0,0,243.2,79.55l-1.4,1.405a.691.691,0,0,1-1.18-.487V77.563a.461.461,0,0,0-.46-.461h-7.047a.462.462,0,0,0-.461.461v29.8a.462.462,0,0,0,.461.461h7.047a.461.461,0,0,0,.46-.461V90.669a7.362,7.362,0,0,1,1.65-5.17,5.865,5.865,0,0,1,4.5-1.791,5.586,5.586,0,0,1,4.419,1.8,7.649,7.649,0,0,1,1.551,5.159v16.692a.461.461,0,0,0,.46.461h7.046a.461.461,0,0,0,.46-.461V87.781c0-3.523-.9-6.317-2.681-8.3C256.26,77.509,253.708,76.51,250.443,76.51Z" fill="#3c02ea"/>
          <path d="M282.772,77.458h-5.155a1.033,1.033,0,0,1-1.032-1.033v-.73c0-2.588,1.306-3.955,3.777-3.955a10.621,10.621,0,0,1,2.244.219h0a1.09,1.09,0,0,0,1.324-1.064V67.034A1.447,1.447,0,0,0,282.7,65.6l-1.09-.172a23.585,23.585,0,0,0-3.563-.232c-3.044,0-5.384.779-6.954,2.313s-2.362,4.006-2.362,7.36v1.5A1.034,1.034,0,0,1,267.7,77.4h-1.6a1.1,1.1,0,0,0-1.1,1.1v4.168a1.1,1.1,0,0,0,1.1,1.1h1.6a1.034,1.034,0,0,1,1.033,1.033v22.545a.477.477,0,0,0,.476.477h7.016a.477.477,0,0,0,.476-.477V84.8a1.034,1.034,0,0,1,1.033-1.033h5.036a1.1,1.1,0,0,0,1.1-1.1V78.558A1.1,1.1,0,0,0,282.772,77.458Z" fill="#3c02ea"/>
          <path d="M314.51,81.132a16.217,16.217,0,0,0-5.254-3.387,17.553,17.553,0,0,0-6.618-1.235,17.346,17.346,0,0,0-6.674,1.264,16.7,16.7,0,0,0-5.288,3.447,15.965,15.965,0,0,0-3.5,5.08,15.461,15.461,0,0,0-1.259,6.221v.118a15.461,15.461,0,0,0,1.259,6.221,15.811,15.811,0,0,0,3.472,5.049A16.147,16.147,0,0,0,295.9,107.3a17.531,17.531,0,0,0,6.619,1.235,17.324,17.324,0,0,0,6.675-1.263,16.67,16.67,0,0,0,5.286-3.447,15.932,15.932,0,0,0,3.5-5.08,15.481,15.481,0,0,0,1.26-6.22V92.4a15.5,15.5,0,0,0-1.26-6.222A15.836,15.836,0,0,0,314.51,81.132ZM311.392,92.64a10.431,10.431,0,0,1-.593,3.523,8.778,8.778,0,0,1-1.733,2.927,8.183,8.183,0,0,1-2.749,1.992,8.9,8.9,0,0,1-3.679.727,8.444,8.444,0,0,1-3.628-.761,9,9,0,0,1-4.619-5,9.921,9.921,0,0,1-.627-3.529V92.4a10.4,10.4,0,0,1,.594-3.523,8.778,8.778,0,0,1,1.732-2.927,8.235,8.235,0,0,1,2.75-1.992,8.92,8.92,0,0,1,3.679-.727,8.508,8.508,0,0,1,3.595.759,8.932,8.932,0,0,1,4.652,5,9.982,9.982,0,0,1,.626,3.531Z" fill="#3c02ea"/>
        </g>
        <path d="M345.147,103.63a8.856,8.856,0,0,1-2.311,2.874,10.191,10.191,0,0,1-3.436,1.807,14.314,14.314,0,0,1-4.295.622,19.7,19.7,0,0,1-6.695-1.215,21.234,21.234,0,0,1-5.037-2.58,1.158,1.158,0,0,1-.3-1.62l1-1.4a1.138,1.138,0,0,1,1.566-.293,19.739,19.739,0,0,0,4.286,2.253,15.4,15.4,0,0,0,5.422,1.007,7.515,7.515,0,0,0,4.561-1.3,4.171,4.171,0,0,0,1.778-3.554v-.119a3.168,3.168,0,0,0-.622-1.955A5.6,5.6,0,0,0,339.37,96.7a13.58,13.58,0,0,0-2.458-1.095q-1.393-.474-2.874-.889-1.778-.534-3.584-1.156a14.58,14.58,0,0,1-3.259-1.57,7.958,7.958,0,0,1-2.37-2.37,6.42,6.42,0,0,1-.918-3.554v-.119a8.275,8.275,0,0,1,.77-3.584,8.033,8.033,0,0,1,2.163-2.785,9.867,9.867,0,0,1,3.317-1.777,13.511,13.511,0,0,1,4.178-.622,19.008,19.008,0,0,1,5.746.917,22.092,22.092,0,0,1,4.243,1.834,1.158,1.158,0,0,1,.439,1.605l-.891,1.478a1.139,1.139,0,0,1-1.53.413,20.618,20.618,0,0,0-3.534-1.6,14.192,14.192,0,0,0-4.592-.8,6.746,6.746,0,0,0-4.325,1.275,3.9,3.9,0,0,0-1.6,3.169v.118a2.867,2.867,0,0,0,.652,1.867,5.711,5.711,0,0,0,1.748,1.392,15.7,15.7,0,0,0,2.518,1.067q1.422.474,2.962.947,1.777.534,3.525,1.185a13.834,13.834,0,0,1,3.17,1.66,8.088,8.088,0,0,1,2.281,2.428,6.647,6.647,0,0,1,.859,3.5v.119A8.432,8.432,0,0,1,345.147,103.63Z" fill="#3c02ea"/>
        <path d="M380.932,99.187a16.108,16.108,0,0,1-3.348,5.125,15.642,15.642,0,0,1-5.1,3.466,16.053,16.053,0,0,1-6.4,1.273,15.616,15.616,0,0,1-6.339-1.273,16.023,16.023,0,0,1-5.036-3.437,15.405,15.405,0,0,1-3.318-5.066,16.135,16.135,0,0,1-1.185-6.161,16.374,16.374,0,0,1,1.185-6.192,15.56,15.56,0,0,1,8.384-8.591,16.2,16.2,0,0,1,17.863,3.437,15.51,15.51,0,0,1,3.318,5.066,16.5,16.5,0,0,1-.03,12.353Zm-4.326-10.773a11.683,11.683,0,0,0-2.4-3.81,11.513,11.513,0,0,0-3.614-2.571,10.718,10.718,0,0,0-4.5-.946,11.15,11.15,0,0,0-4.561.916A10.163,10.163,0,0,0,358,84.544a12.147,12.147,0,0,0-2.281,3.783,13.262,13.262,0,0,0,.029,9.308,11.618,11.618,0,0,0,2.37,3.783,11.368,11.368,0,0,0,3.585,2.541,10.71,10.71,0,0,0,4.5.945,11.166,11.166,0,0,0,4.563-.915,10.687,10.687,0,0,0,3.555-2.513,11.547,11.547,0,0,0,2.311-3.753,12.824,12.824,0,0,0,.829-4.638A12.659,12.659,0,0,0,376.606,88.414Z" fill="#3c02ea"/>
        <path d="M410.9,77.709h2.21a1.147,1.147,0,0,1,1.146,1.147v28.338a1.147,1.147,0,0,1-1.146,1.147H410.9a1.147,1.147,0,0,1-1.146-1.147v-2.56a.514.514,0,0,0-.925-.307,14.639,14.639,0,0,1-3.1,2.918,11.007,11.007,0,0,1-6.458,1.747,12.91,12.91,0,0,1-4.947-.889,10.22,10.22,0,0,1-3.674-2.518,11.081,11.081,0,0,1-2.311-3.88,14.808,14.808,0,0,1-.8-4.977V78.856a1.148,1.148,0,0,1,1.147-1.147h2.269a1.147,1.147,0,0,1,1.146,1.147V95.6a9.86,9.86,0,0,0,2.192,6.754,7.928,7.928,0,0,0,6.281,2.488,9.634,9.634,0,0,0,3.643-.682,8.167,8.167,0,0,0,2.9-1.955,9.468,9.468,0,0,0,1.926-3.051,10.451,10.451,0,0,0,.711-3.91V78.856A1.147,1.147,0,0,1,410.9,77.709Z" fill="#3c02ea"/>
        <path d="M425.553,108.341h-2.269a1.147,1.147,0,0,1-1.146-1.147V78.856a1.147,1.147,0,0,1,1.146-1.147h2.269a1.147,1.147,0,0,1,1.147,1.147v4.529a.514.514,0,0,0,.92.315l1.154-1.488a13.914,13.914,0,0,1,2.844-2.755,11.941,11.941,0,0,1,6.376-2.262,1.142,1.142,0,0,1,1.208,1.152v1.559a2.45,2.45,0,0,1-2.105,2.428,14.769,14.769,0,0,0-2.961.648,10.67,10.67,0,0,0-3.881,2.667,12.651,12.651,0,0,0-2.607,4.413,17.914,17.914,0,0,0-.948,6.073v11.059A1.147,1.147,0,0,1,425.553,108.341Z" fill="#3c02ea"/>
        <path d="M463.523,107.369a14.4,14.4,0,0,1-7.257,1.682,15.266,15.266,0,0,1-6.251-1.273,15.558,15.558,0,0,1-8.265-8.5,16.116,16.116,0,0,1-1.185-6.161,16.355,16.355,0,0,1,1.185-6.192,15.945,15.945,0,0,1,3.287-5.124,15.575,15.575,0,0,1,4.978-3.467,15.266,15.266,0,0,1,6.251-1.273,17.534,17.534,0,0,1,3.969.415,14.7,14.7,0,0,1,3.258,1.155,14.955,14.955,0,0,1,2.725,1.748q.783.631,1.493,1.311a1.156,1.156,0,0,1,.053,1.632l-1.455,1.541a1.138,1.138,0,0,1-1.6.065,21.394,21.394,0,0,0-3.2-2.476,9.758,9.758,0,0,0-5.3-1.362,10.314,10.314,0,0,0-4.325.916,10.644,10.644,0,0,0-3.5,2.541,11.887,11.887,0,0,0-2.31,3.783,12.8,12.8,0,0,0-.83,4.639,12.648,12.648,0,0,0,.859,4.669,11.929,11.929,0,0,0,2.37,3.812A10.743,10.743,0,0,0,456.5,104.9a10.378,10.378,0,0,0,5.244-1.3,17.472,17.472,0,0,0,3.365-2.5,1.155,1.155,0,0,1,1.579.02l1.245,1.168a1.138,1.138,0,0,1,.055,1.618A20.551,20.551,0,0,1,463.523,107.369Z" fill="#3c02ea"/>
        <path d="M477,99.128a10.622,10.622,0,0,0,2.429,3.258,10.213,10.213,0,0,0,3.318,2.014,10.963,10.963,0,0,0,3.851.682,11.752,11.752,0,0,0,5.48-1.185,15.894,15.894,0,0,0,3.41-2.4,1.161,1.161,0,0,1,1.564-.031l1.171,1.049a1.159,1.159,0,0,1,.026,1.688,18.508,18.508,0,0,1-4.423,3.273,15.562,15.562,0,0,1-7.346,1.57,15.307,15.307,0,0,1-5.925-1.155,14.744,14.744,0,0,1-4.872-3.258,15.552,15.552,0,0,1-3.318-5.066,16.814,16.814,0,0,1-1.231-6.517,17.685,17.685,0,0,1,1.1-6.251,15.686,15.686,0,0,1,3.051-5.095,14.246,14.246,0,0,1,4.65-3.407,14.787,14.787,0,0,1,11.939.029,13.268,13.268,0,0,1,4.5,3.467,15.078,15.078,0,0,1,2.784,5.154,20.688,20.688,0,0,1,.948,6.34V93.3a1.424,1.424,0,0,1-1.426,1.416H477.139a1.149,1.149,0,0,0-1.134,1.349A11.853,11.853,0,0,0,477,99.128Zm17.119-7.791a1.157,1.157,0,0,0,1.135-1.354,15.376,15.376,0,0,0-.683-2.616,10.556,10.556,0,0,0-1.884-3.318,9.114,9.114,0,0,0-2.944-2.281,9.008,9.008,0,0,0-4.034-.859,8.643,8.643,0,0,0-3.711.8,9.666,9.666,0,0,0-3,2.192,11.523,11.523,0,0,0-2.12,3.289,13.344,13.344,0,0,0-.857,2.78,1.153,1.153,0,0,0,1.132,1.367Z" fill="#3c02ea"/>
      </g>
      <g>
        <g>
          <circle cx="153.148" cy="108.081" r="10.641" fill="#ea0e4c"/>
          <circle cx="129.544" cy="60.726" r="10.641" fill="#3c02ea"/>
        </g>
        <circle cx="104.851" cy="76.51" r="10.641" fill="#ea8e0e"/>
        <path d="M110.613,99.135a10.612,10.612,0,0,0-9.089-1.158,10.61,10.61,0,0,1-12.7-8.544,10.642,10.642,0,1,0-7.694,11.8l-.023.036a10.638,10.638,0,0,1,13.248,8.517,10.636,10.636,0,1,0,16.254-10.647Z" fill="#afea02"/>
        <path d="M136.63,115.943h.042a10.638,10.638,0,0,1-.014-15.75,10.634,10.634,0,1,0-13.806.371,10.61,10.61,0,0,1-.306,15.3,10.642,10.642,0,1,0,14.084.079Z" fill="#3c02ea"/>
        <path d="M185.45,84.664a10.6,10.6,0,0,0-8.586-1.3l.023-.036a10.636,10.636,0,0,1-13.248-8.518,10.634,10.634,0,1,0-7.165,11.807,10.608,10.608,0,0,1,12.7,8.543,10.636,10.636,0,1,0,16.28-10.494Z" fill="#13d0b4"/>
      </g>
    </g>
    <path d="M509.052,82.873a4.638,4.638,0,0,1-1.829-.365,4.677,4.677,0,0,1-2.547-2.6,5.453,5.453,0,0,1-.378-2.076,5.555,5.555,0,0,1,.378-2.09,4.841,4.841,0,0,1,1.033-1.606,4.633,4.633,0,0,1,3.343-1.4,4.748,4.748,0,0,1,1.842.365,4.461,4.461,0,0,1,1.515,1.033,4.936,4.936,0,0,1,1.018,1.606,5.536,5.536,0,0,1,.379,2.09,5.434,5.434,0,0,1-.379,2.076,4.841,4.841,0,0,1-1.018,1.581,4.571,4.571,0,0,1-1.515,1.019A4.73,4.73,0,0,1,509.052,82.873Zm0-.757a3.734,3.734,0,0,0,1.541-.327,3.818,3.818,0,0,0,1.254-.888,4.3,4.3,0,0,0,.836-1.346A4.594,4.594,0,0,0,513,77.832a4.711,4.711,0,0,0-.314-1.738,4.588,4.588,0,0,0-.836-1.384,3.627,3.627,0,0,0-1.254-.914,3.825,3.825,0,0,0-3.1,0,3.663,3.663,0,0,0-1.241.914,4.585,4.585,0,0,0-.835,1.384,4.711,4.711,0,0,0-.314,1.738,4.594,4.594,0,0,0,.314,1.723,4.3,4.3,0,0,0,.835,1.346,3.86,3.86,0,0,0,1.241.888A3.707,3.707,0,0,0,509.052,82.116Zm-1.776-1.7V75.037h1.8a3.375,3.375,0,0,1,.744.078,1.839,1.839,0,0,1,.64.274,1.438,1.438,0,0,1,.457.509,1.7,1.7,0,0,1,.17.81,1.544,1.544,0,0,1-.3.915,1.4,1.4,0,0,1-.745.548l1.28,2.247h-.967l-1.018-1.986h-1.228v1.986Zm.836-2.691h.758a1.849,1.849,0,0,0,.966-.222.8.8,0,0,0,.366-.744.973.973,0,0,0-.275-.719,1.369,1.369,0,0,0-.979-.274h-.836Z" fill="#3c02ea"/>
  </g>
</svg>
